<?xml version="1.0" encoding="UTF-8"?>
<svg width="52px" height="52px" viewBox="0 0 52 52" version="1.1" xmlns="http://www.w3.org/2000/svg" xmlns:xlink="http://www.w3.org/1999/xlink">
    <title>github-square-brands</title>
    <g id="Page-1" stroke="none" stroke-width="1" fill="none" fill-rule="evenodd">
        <g id="Artboard" transform="translate(-1278.000000, -485.000000)" fill="#67A36F">
            <g id="github-square-brands" transform="translate(1278.000000, 485.000000)">
                <g id="Shape">
                    <path d="M46.4285714,0 L5.57142857,0 C2.49553571,0 0,2.49553571 0,5.57142857 L0,46.4285714 C0,49.5044643 2.49553571,52 5.57142857,52 L46.4285714,52 C49.5044643,52 52,49.5044643 52,46.4285714 L52,5.57142857 C52,2.49553571 49.5044643,0 46.4285714,0 Z M32.1866071,44.5366071 C31.2116071,44.7107143 30.8517857,44.1071429 30.8517857,43.6080357 C30.8517857,42.98125 30.875,39.7776786 30.875,37.1892857 C30.875,35.3785714 30.2714286,34.2294643 29.5633929,33.6258929 C33.8580357,33.15 38.3848214,32.5580357 38.3848214,25.1410714 C38.3848214,23.0285714 37.6303571,21.9723214 36.4,20.6142857 C36.5973214,20.1151786 37.2589286,18.0607143 36.2026786,15.3910714 C34.5892857,14.8919643 30.8982143,17.46875 30.8982143,17.46875 C29.3660714,17.0392857 27.70625,16.81875 26.0696429,16.81875 C24.4330357,16.81875 22.7732143,17.0392857 21.2410714,17.46875 C21.2410714,17.46875 17.55,14.8919643 15.9366071,15.3910714 C14.8803571,18.0491071 15.5303571,20.1035714 15.7392857,20.6142857 C14.5089286,21.9723214 13.9285714,23.0285714 13.9285714,25.1410714 C13.9285714,32.5232143 18.2580357,33.15 22.5526786,33.6258929 C21.9955357,34.125 21.4964286,34.9839286 21.3223214,36.2142857 C20.2196429,36.7133929 17.3991071,37.5723214 15.7160714,34.6008929 C14.6598214,32.7669643 12.75625,32.6160714 12.75625,32.6160714 C10.8758929,32.5928571 12.6285714,33.8 12.6285714,33.8 C13.8821429,34.3803571 14.7642857,36.6089286 14.7642857,36.6089286 C15.8901786,40.05625 21.2758929,38.8955357 21.2758929,38.8955357 C21.2758929,40.5089286 21.2991071,43.1321429 21.2991071,43.6080357 C21.2991071,44.1071429 20.9508929,44.7107143 19.9642857,44.5366071 C12.3035714,41.9714286 6.94107143,34.6821429 6.94107143,26.1625 C6.94107143,15.5071429 15.0892857,7.41696429 25.7446429,7.41696429 C36.4,7.41696429 45.0357337,15.5071429 45.0357337,26.1625 C45.0473214,34.6821429 39.8473214,41.9830357 32.1866071,44.5366071 Z M20.8,37.4446429 C20.5794643,37.4910714 20.3705357,37.3982143 20.3473214,37.2473214 C20.3241071,37.0732143 20.475,36.9223214 20.6955357,36.8758929 C20.9160714,36.8526786 21.125,36.9455357 21.1482143,37.0964286 C21.1830357,37.2473214 21.0321429,37.3982143 20.8,37.4446429 Z M19.6973214,37.3401786 C19.6973214,37.4910714 19.5232143,37.61875 19.2910714,37.61875 C19.0357143,37.6419643 18.8616071,37.5142857 18.8616071,37.3401786 C18.8616071,37.1892857 19.0357143,37.0616071 19.2678571,37.0616071 C19.4883929,37.0383929 19.6973214,37.1660714 19.6973214,37.3401786 Z M18.1071429,37.2125 C18.0607143,37.3633929 17.8285714,37.4330357 17.63125,37.3633929 C17.4107143,37.3169643 17.2598214,37.1428571 17.30625,36.9919643 C17.3526786,36.8410714 17.5848214,36.7714286 17.7821429,36.8178571 C18.0142857,36.8875 18.1651786,37.0616071 18.1071429,37.2125 Z M16.6794643,36.5857143 C16.575,36.7133929 16.3544643,36.6901786 16.1803571,36.5160714 C16.00625,36.3651786 15.9598214,36.1446429 16.0758929,36.0401786 C16.1803571,35.9125 16.4008929,35.9357143 16.575,36.1098214 C16.7258929,36.2607143 16.7839286,36.4928571 16.6794643,36.5857143 Z M15.6232143,35.5294643 C15.51875,35.5991071 15.3214286,35.5294643 15.19375,35.3553571 C15.0660714,35.18125 15.0660714,34.9839286 15.19375,34.9026786 C15.3214286,34.7982143 15.51875,34.8794643 15.6232143,35.0535714 C15.7508929,35.2276786 15.7508929,35.4366071 15.6232143,35.5294643 L15.6232143,35.5294643 Z M14.86875,34.4035714 C14.7642857,34.5080357 14.5901786,34.45 14.4625,34.3339286 C14.3348214,34.1830357 14.3116071,34.0089286 14.4160714,33.9276786 C14.5205357,33.8232143 14.6946429,33.88125 14.8223214,33.9973214 C14.95,34.1482143 14.9732143,34.3223214 14.86875,34.4035714 Z M14.0910714,33.5446429 C14.0446429,33.6491071 13.89375,33.6723214 13.7660714,33.5910714 C13.6151786,33.5214286 13.5455357,33.39375 13.5919643,33.2892857 C13.6383929,33.2196429 13.7660714,33.1848214 13.9169643,33.2428571 C14.0678571,33.3241071 14.1375,33.4517857 14.0910714,33.5446429 Z" fill-rule="nonzero"></path>
                </g>
            </g>
        </g>
    </g>
</svg>