<?xml version="1.0" encoding="UTF-8"?>
<svg preserveAspectRation="none" viewBox="0 0 343 606" version="1.1" xmlns="http://www.w3.org/2000/svg" xmlns:xlink="http://www.w3.org/1999/xlink">
    <title>Rectangle</title>
    <g id="Page-1" stroke="none" stroke-width="1" fill="none" fill-rule="evenodd">
        <g id="Artboard" stroke="#67A36F" stroke-width="4">
            <path d="M253.307482,-27.0428604 C254.688194,-27.0428604 255.938194,-26.4832164 256.843016,-25.5783944 C257.747838,-24.6735723 258.307482,-23.4235723 258.307482,-22.0428604 L258.307482,-22.0428604 L258.307482,474.803992 C258.307482,476.060767 257.840977,477.219864 257.062872,478.105059 C256.284767,478.990254 255.195063,479.601546 253.948664,479.76271 L253.948664,479.76271 L-180.529832,535.942528 C-181.899144,536.119586 -183.210591,535.724858 -184.223973,534.943537 C-185.237356,534.162217 -185.952675,532.994304 -186.129733,531.624992 C-186.170737,531.307878 -186.181227,530.987563 -186.161059,530.668446 L-186.161059,530.668446 L-151.210488,-22.3582248 C-151.127264,-23.6750849 -150.539496,-24.8462438 -149.642663,-25.6881877 C-148.745829,-26.5301316 -147.53993,-27.0428604 -146.220443,-27.0428604 L-146.220443,-27.0428604 Z" id="Rectangle" transform="translate(35.807482, 254.985893) rotate(-31.000000) translate(-35.807482, -254.985893) "></path>
        </g>
    </g>
</svg>