<?xml version="1.0" encoding="UTF-8"?>
<svg width="52px" height="52px" viewBox="0 0 52 52" version="1.1" xmlns="http://www.w3.org/2000/svg" xmlns:xlink="http://www.w3.org/1999/xlink">
    <title>linkedin-brands</title>
    <g id="Page-1" stroke="none" stroke-width="1" fill="none" fill-rule="evenodd">
        <g id="Artboard" transform="translate(-1278.000000, -578.000000)" fill="#67A36F">
            <g id="linkedin-brands" transform="translate(1278.000000, 578.000000)">
                <g id="Shape">
                    <path d="M48.2857143,0 L3.70267857,0 C1.65982143,0 0,1.68303571 0,3.74910714 L0,48.2508929 C0,50.3169643 1.65982143,52 3.70267857,52 L48.2857143,52 C50.3285714,52 52,50.3169643 52,48.2508929 L52,3.74910714 C52,1.68303571 50.3285714,0 48.2857143,0 Z M15.7160714,44.5714286 L8.00892857,44.5714286 L8.00892857,19.7553571 L15.7276786,19.7553571 L15.7276786,44.5714286 L15.7160714,44.5714286 Z M11.8625,16.3660714 C9.39017857,16.3660714 7.39375,14.3580357 7.39375,11.8973214 C7.39375,9.43660714 9.39017857,7.42857143 11.8625,7.42857143 C14.3232143,7.42857143 16.33125,9.43660714 16.33125,11.8973214 C16.33125,14.3696429 14.3348214,16.3660714 11.8625,16.3660714 L11.8625,16.3660714 Z M44.60625,44.5714286 L36.8991071,44.5714286 L36.8991071,32.5 C36.8991071,29.6214286 36.8410714,25.91875 32.8946429,25.91875 C28.8785714,25.91875 28.2633929,29.0526786 28.2633929,32.2910714 L28.2633929,44.5714286 L20.55625,44.5714286 L20.55625,19.7553571 L27.95,19.7553571 L27.95,23.1446429 L28.0544643,23.1446429 C29.0875,21.1946429 31.60625,19.1401786 35.3553571,19.1401786 C43.1553571,19.1401786 44.60625,24.2821429 44.60625,30.9678571 L44.60625,44.5714286 L44.60625,44.5714286 Z" fill-rule="nonzero"></path>
                </g>
            </g>
        </g>
    </g>
</svg>