<?xml version="1.0" encoding="UTF-8"?>
<svg width="52px" height="52px" viewBox="0 0 52 52" version="1.1" xmlns="http://www.w3.org/2000/svg" xmlns:xlink="http://www.w3.org/1999/xlink">
    <title>twitter-square-brands</title>
    <g id="Page-1" stroke="none" stroke-width="1" fill="none" fill-rule="evenodd">
        <g id="Artboard" transform="translate(-1278.000000, -671.000000)" fill="#67A36F">
            <g id="twitter-square-brands" transform="translate(1278.000000, 671.000000)">
                <g id="Shape">
                    <path d="M46.4285714,0 L5.57142857,0 C2.49553571,0 0,2.49553571 0,5.57142857 L0,46.4285714 C0,49.5044643 2.49553571,52 5.57142857,52 L46.4285714,52 C49.5044643,52 52,49.5044643 52,46.4285714 L52,5.57142857 C52,2.49553571 49.5044643,0 46.4285714,0 Z M40.7526786,18.4321429 C40.7758929,18.7571429 40.7758929,19.09375 40.7758929,19.41875 C40.7758929,29.4821429 33.1151786,41.0776786 19.1169643,41.0776786 C14.7991071,41.0776786 10.7946429,39.8241071 7.42857143,37.6651786 C8.04375,37.7348214 8.63571429,37.7580357 9.2625,37.7580357 C12.8258929,37.7580357 16.0991071,36.5508929 18.7107143,34.5080357 C15.3678571,34.4383929 12.5589286,32.2446429 11.5955357,29.2267857 C12.7678571,29.4008929 13.8241071,29.4008929 15.03125,29.0875 C11.5491071,28.3794643 8.9375,25.3151786 8.9375,21.6125 L8.9375,21.5196429 C9.94732143,22.0883929 11.13125,22.4366071 12.3732143,22.4830357 C10.252413,21.0723462 8.97975858,18.6926567 8.98392857,16.1455357 C8.98392857,14.7294643 9.35535714,13.4294643 10.0169643,12.3035714 C13.7660714,16.9232143 19.3955357,19.9410714 25.7098214,20.2660714 C24.6303571,15.1008929 28.4955357,10.9107143 33.1383929,10.9107143 C35.3321429,10.9107143 37.3053571,11.8276786 38.6982143,13.3133929 C40.4160714,12.9883929 42.0642857,12.35 43.5267857,11.4794643 C42.9580357,13.24375 41.7625,14.7294643 40.1839286,15.6696429 C41.7160714,15.5071429 43.2017857,15.0776786 44.5714286,14.4857143 C43.5383929,16.00625 42.2383929,17.3526786 40.7526786,18.4321429 L40.7526786,18.4321429 Z" fill-rule="nonzero"></path>
                </g>
            </g>
        </g>
    </g>
</svg>