<?xml version="1.0" encoding="UTF-8"?>
<svg width="60px" height="42px" viewBox="0 0 60 42" version="1.1" xmlns="http://www.w3.org/2000/svg" xmlns:xlink="http://www.w3.org/1999/xlink">
    <title>Shape</title>
    <g id="Page-1" stroke="none" stroke-width="1" fill="none" fill-rule="evenodd">
        <g id="Artboard" transform="translate(-786.000000, -2435.000000)" fill="#67A36F" fill-rule="nonzero">
            <g id="Group" transform="translate(779.000000, 2429.000000)">
                <g id="tv-24px" transform="translate(7.000000, 0.000000)">
                    <path d="M54.5454545,6 L5.45454545,6 C2.45454545,6 0,8.1 0,10.6666667 L0,38.6666667 C0,41.2333333 2.45454545,43.3333333 5.45454545,43.3333333 L19.0909091,43.3333333 L19.0909091,48 L40.9090909,48 L40.9090909,43.3333333 L54.5454545,43.3333333 C57.5454545,43.3333333 59.9727273,41.2333333 59.9727273,38.6666667 L60,10.6666667 C60,8.1 57.5454545,6 54.5454545,6 Z M55,39 L6,39 L6,11 L55,11 L55,39 Z" id="Shape"></path>
                </g>
            </g>
        </g>
    </g>
</svg>